<svg width="170" height="50" viewBox="0 0 170 50" fill="none" xmlns="http://www.w3.org/2000/svg">
<g clip-path="url(#clip0_316_381)">
<mask id="mask0_316_381" style="mask-type:luminance" maskUnits="userSpaceOnUse" x="0" y="0" width="170" height="50">
<path d="M170 0H0V50H170V0Z" fill="white"/>
</mask>
<g mask="url(#mask0_316_381)">
<mask id="mask1_316_381" style="mask-type:luminance" maskUnits="userSpaceOnUse" x="0" y="0" width="170" height="50">
<path d="M170 0H0V50H170V0Z" fill="white"/>
</mask>
<g mask="url(#mask1_316_381)">
<g opacity="0.7">
<g opacity="0.8">
<path d="M64.7002 44.6V34.5H68.3002C69.1002 34.5 69.7002 34.7 70.2002 35C70.7002 35.3 71.1002 35.7 71.4002 36.2C71.7002 36.7 71.8002 37.2 71.8002 37.8C71.8002 38.4 71.7002 38.9 71.4002 39.4C71.1002 39.9 70.8002 40.3 70.2002 40.6C69.6002 40.9 69.0002 41.1 68.3002 41.1H66.0002V44.6H64.7002ZM68.3002 35.7H66.0002V40H68.3002C68.8002 40 69.2002 39.9 69.5002 39.7C69.8002 39.5 70.1002 39.2 70.2002 38.9C70.3002 38.6 70.4002 38.2 70.4002 37.9C70.4002 37.6 70.4002 37.2 70.2002 36.9C70.0002 36.6 69.8002 36.3 69.5002 36.1C69.2002 35.9 68.8002 35.8 68.3002 35.8V35.7Z" fill="white"/>
<path d="M73.4999 44.6002V34.2002H74.7999V38.4002C74.7999 38.3002 74.9999 38.1002 75.0999 37.9002C75.2999 37.7002 75.4999 37.5002 75.6999 37.4002C75.8999 37.3002 76.2999 37.2002 76.7999 37.2002C77.2999 37.2002 77.7999 37.3002 78.1999 37.6002C78.5999 37.9002 78.8999 38.2002 79.0999 38.6002C79.2999 39.0002 79.3999 39.5002 79.3999 40.0002V44.7002H78.0999V40.1002C78.0999 39.6002 77.9999 39.2002 77.6999 38.9002C77.3999 38.6002 76.9999 38.4002 76.4999 38.4002C75.9999 38.4002 75.7999 38.5002 75.4999 38.7002C75.1999 38.9002 75.0999 39.2002 74.8999 39.5002C74.7999 39.8002 74.6999 40.2002 74.6999 40.6002V44.7002H73.3999L73.4999 44.6002Z" fill="white"/>
<path d="M82.1999 36.0004C81.9999 36.0004 81.7999 36.0004 81.5999 35.8004C81.3999 35.6004 81.3999 35.4004 81.3999 35.2004C81.3999 35.0004 81.3999 34.8004 81.5999 34.6004C81.7999 34.4004 81.9999 34.4004 82.1999 34.4004C82.3999 34.4004 82.5999 34.4004 82.7999 34.6004C82.9999 34.8004 82.9999 35.0004 82.9999 35.2004C82.9999 35.4004 82.9999 35.6004 82.7999 35.8004C82.5999 36.0004 82.3999 36.0004 82.1999 36.0004ZM81.4999 44.6004V37.4004H82.7999V44.6004H81.4999Z" fill="white"/>
<path d="M84.9002 44.6003V37.4003H86.2002V38.5003C86.2002 38.4003 86.4002 38.2003 86.5002 38.0003C86.7002 37.8003 86.9002 37.6003 87.1002 37.5003C87.4002 37.4003 87.7002 37.3003 88.1002 37.3003C88.5002 37.3003 89.1002 37.4003 89.5002 37.7003C89.9002 38.0003 90.1002 38.3003 90.3002 38.7003C90.5002 38.3003 90.8002 38.0003 91.2002 37.7003C91.6002 37.4003 92.0002 37.3003 92.6002 37.3003C93.2002 37.3003 94.0002 37.6003 94.4002 38.1003C94.8002 38.6003 95.0002 39.3003 95.0002 40.2003V44.7003H93.7002V40.2003C93.7002 39.7003 93.6002 39.2003 93.3002 38.9003C93.0002 38.6003 92.7002 38.4003 92.2002 38.4003C91.7002 38.4003 91.4002 38.5003 91.2002 38.7003C90.9002 38.9003 90.8002 39.2003 90.7002 39.5003C90.6002 39.8003 90.5002 40.2003 90.5002 40.5003V44.6003H89.2002V40.1003C89.2002 39.6003 89.1002 39.1003 88.8002 38.8003C88.5002 38.5003 88.2002 38.3003 87.7002 38.3003C87.2002 38.3003 86.9002 38.4003 86.7002 38.6003C86.5002 38.8003 86.3002 39.1003 86.2002 39.5003C86.1002 39.8003 86.0002 40.2003 86.0002 40.5003V44.6003H84.7002H84.9002Z" fill="white"/>
<path d="M100.4 44.6002V34.2002H101.7V38.4002C101.7 38.3002 101.9 38.1002 102 37.9002C102.1 37.7002 102.4 37.5002 102.6 37.4002C102.8 37.3002 103.2 37.2002 103.7 37.2002C104.2 37.2002 104.7 37.3002 105.1 37.6002C105.5 37.8002 105.8 38.2002 106 38.6002C106.2 39.0002 106.3 39.5002 106.3 40.0002V44.7002H105V40.1002C105 39.6002 104.9 39.2002 104.6 38.9002C104.3 38.6002 103.9 38.4002 103.4 38.4002C102.9 38.4002 102.7 38.5002 102.4 38.7002C102.1 38.9002 102 39.2002 101.8 39.5002C101.7 39.8002 101.6 40.2002 101.6 40.6002V44.7002H100.3L100.4 44.6002Z" fill="white"/>
<path d="M111.4 37.3003C111.9 37.3003 112.2 37.3003 112.5 37.5003C112.8 37.6003 113.1 37.8003 113.3 38.0003C113.5 38.2003 113.6 38.4003 113.7 38.6003V37.5003H115V44.7003H113.7V43.6003C113.6 43.8003 113.5 44.0003 113.3 44.2003C113.1 44.4003 112.9 44.6003 112.5 44.7003C112.2 44.8003 111.8 44.9003 111.4 44.9003C111 44.9003 110.4 44.8003 110 44.6003C109.6 44.4003 109.2 44.1003 109 43.7003C108.7 43.3003 108.5 42.9003 108.4 42.5003C108.3 42.1003 108.2 41.6003 108.2 41.1003C108.2 40.6003 108.2 40.2003 108.4 39.7003C108.6 39.2003 108.7 38.9003 109 38.5003C109.3 38.1003 109.6 37.9003 110 37.6003C110.4 37.4003 110.9 37.3003 111.4 37.3003ZM111.6 38.4003C111.1 38.4003 110.7 38.5003 110.4 38.8003C110.1 39.1003 109.8 39.4003 109.7 39.8003C109.5 40.2003 109.5 40.6003 109.5 41.1003C109.5 41.6003 109.5 42.0003 109.7 42.4003C109.9 42.8003 110.1 43.1003 110.4 43.4003C110.7 43.7003 111.1 43.8003 111.6 43.8003C112.1 43.8003 112.5 43.7003 112.8 43.4003C113.1 43.1003 113.4 42.8003 113.5 42.4003C113.6 42.0003 113.7 41.6003 113.7 41.1003C113.7 40.6003 113.7 40.2003 113.5 39.8003C113.3 39.4003 113.1 39.1003 112.8 38.8003C112.5 38.5003 112.1 38.4003 111.6 38.4003Z" fill="white"/>
<path d="M117.1 47.3004C116.9 47.3004 116.6 47.3004 116.3 47.3004V46.2004C116.6 46.2004 116.8 46.2004 117 46.2004C117.5 46.2004 118 46.1004 118.3 45.9004C118.6 45.7004 118.9 45.3004 119.2 44.8004L116.4 37.4004H117.8L119.9 43.1004L122 37.4004H123.4L120.6 44.7004C120.2 45.6004 119.8 46.3004 119.2 46.7004C118.6 47.1004 117.9 47.3004 117.1 47.3004Z" fill="white"/>
<path d="M131.3 44.8002C130.7 44.8002 130.2 44.7002 129.7 44.5002C129.2 44.3002 128.9 44.0002 128.6 43.6002C128.3 43.2002 128.1 42.8002 127.9 42.4002C127.7 42.0002 127.7 41.5002 127.7 41.0002C127.7 40.5002 127.7 40.1002 127.9 39.6002C128 39.2002 128.3 38.8002 128.6 38.4002C128.9 38.0002 129.3 37.7002 129.7 37.5002C130.1 37.3002 130.7 37.2002 131.3 37.2002C131.9 37.2002 132.4 37.2002 132.7 37.5002C133 37.8002 133.4 37.9002 133.6 38.1002C133.8 38.4002 134 38.6002 134.1 38.9002C134.2 39.2002 134.3 39.5002 134.4 39.8002H133.1C133.1 39.5002 132.9 39.3002 132.8 39.1002C132.7 38.9002 132.5 38.7002 132.2 38.6002C131.9 38.5002 131.6 38.4002 131.2 38.4002C130.8 38.4002 130.3 38.5002 129.9 38.8002C129.5 39.1002 129.3 39.4002 129.1 39.8002C128.9 40.2002 128.8 40.6002 128.8 41.1002C128.8 41.6002 128.8 42.0002 129.1 42.4002C129.3 42.8002 129.5 43.1002 129.9 43.4002C130.3 43.7002 130.7 43.8002 131.2 43.8002C131.7 43.8002 132 43.8002 132.2 43.6002C132.4 43.4002 132.6 43.3002 132.8 43.1002C133 42.9002 133 42.7002 133.1 42.4002H134.4C134.4 42.7002 134.2 43.0002 134.1 43.3002C134 43.6002 133.8 43.8002 133.6 44.1002C133.4 44.4002 133.1 44.6002 132.7 44.7002C132.3 44.8002 131.8 45.0002 131.3 45.0002V44.8002Z" fill="white"/>
<path d="M139.5 37.3004C140 37.3004 140.3 37.3004 140.6 37.5004C140.9 37.6004 141.2 37.8004 141.4 38.0004C141.6 38.2004 141.7 38.4004 141.8 38.6004V37.5004H143.1V44.7004H141.8V43.6004C141.7 43.8004 141.6 44.0004 141.4 44.2004C141.2 44.4004 141 44.6004 140.6 44.7004C140.3 44.8004 139.9 44.9004 139.5 44.9004C139.1 44.9004 138.5 44.8004 138.1 44.6004C137.7 44.4004 137.3 44.1004 137.1 43.7004C136.8 43.3004 136.6 42.9004 136.5 42.5004C136.4 42.1004 136.3 41.6004 136.3 41.1004C136.3 40.6004 136.3 40.2004 136.5 39.7004C136.7 39.2004 136.8 38.9004 137.1 38.5004C137.4 38.1004 137.7 37.9004 138.1 37.6004C138.5 37.3004 139 37.3004 139.5 37.3004ZM139.7 38.4004C139.2 38.4004 138.8 38.5004 138.5 38.8004C138.2 39.1004 137.9 39.4004 137.8 39.8004C137.6 40.2004 137.6 40.6004 137.6 41.1004C137.6 41.6004 137.6 42.0004 137.8 42.4004C138 42.8004 138.2 43.1004 138.5 43.4004C138.8 43.7004 139.2 43.8004 139.7 43.8004C140.2 43.8004 140.6 43.7004 140.9 43.4004C141.2 43.1004 141.5 42.8004 141.6 42.4004C141.7 42.0004 141.8 41.6004 141.8 41.1004C141.8 40.6004 141.8 40.2004 141.6 39.8004C141.4 39.4004 141.2 39.1004 140.9 38.8004C140.6 38.5004 140.2 38.4004 139.7 38.4004ZM139.4 36.4004V36.0004C139.4 36.0004 139.4 35.8004 139.4 35.7004C139.4 35.6004 139.5 35.5004 139.6 35.5004H139.8C140.2 35.2004 140.4 35.0004 140.4 34.7004C140.4 34.4004 140.4 34.5004 140.3 34.4004C140.2 34.3004 140.1 34.2004 139.8 34.2004C139.5 34.2004 139.5 34.2004 139.4 34.3004C139.4 34.3004 139.3 34.5004 139.2 34.6004V34.8004H138.3C138.3 34.6004 138.3 34.4004 138.5 34.1004C138.7 33.8004 138.8 33.7004 139 33.6004C139.2 33.5004 139.5 33.4004 139.9 33.4004C140.3 33.4004 140.8 33.5004 141 33.8004C141.3 34.1004 141.4 34.3004 141.4 34.7004C141.4 35.1004 141.4 35.2004 141.1 35.4004C140.9 35.6004 140.6 35.8004 140.3 36.0004V36.4004H139.4Z" fill="white"/>
<path d="M166.34 44.9081C165.664 44.9081 165.074 44.7532 164.571 44.4434C164.067 44.1336 163.676 43.7003 163.397 43.1433C163.119 42.5863 162.979 41.9355 162.979 41.1908C162.979 40.443 163.119 39.789 163.397 39.2289C163.676 38.6688 164.067 38.2339 164.571 37.9241C165.074 37.6144 165.664 37.4595 166.34 37.4595C167.016 37.4595 167.606 37.6144 168.109 37.9241C168.613 38.2339 169.004 38.6688 169.283 39.2289C169.561 39.789 169.701 40.443 169.701 41.1908C169.701 41.9355 169.561 42.5863 169.283 43.1433C169.004 43.7003 168.613 44.1336 168.109 44.4434C167.606 44.7532 167.016 44.9081 166.34 44.9081ZM166.345 43.73C166.783 43.73 167.146 43.6142 167.434 43.3827C167.722 43.1511 167.934 42.8429 168.072 42.4581C168.213 42.0732 168.283 41.6492 168.283 41.1861C168.283 40.7262 168.213 40.3037 168.072 39.9189C167.934 39.5309 167.722 39.2195 167.434 38.9849C167.146 38.7502 166.783 38.6328 166.345 38.6328C165.904 38.6328 165.537 38.7502 165.246 38.9849C164.959 39.2195 164.744 39.5309 164.603 39.9189C164.466 40.3037 164.397 40.7262 164.397 41.1861C164.397 41.6492 164.466 42.0732 164.603 42.4581C164.744 42.8429 164.959 43.1511 165.246 43.3827C165.537 43.6142 165.904 43.73 166.345 43.73Z" fill="white"/>
<path d="M156.756 40.4817V44.7622H155.353V35.1499H156.738V38.7264H156.827C156.996 38.3384 157.254 38.0302 157.601 37.8017C157.949 37.5733 158.402 37.4591 158.962 37.4591C159.457 37.4591 159.889 37.5608 160.258 37.7642C160.63 37.9676 160.918 38.2711 161.121 38.6747C161.328 39.0752 161.431 39.5759 161.431 40.1766V44.7622H160.028V40.3456C160.028 39.8168 159.892 39.4069 159.619 39.1159C159.347 38.8218 158.969 38.6747 158.484 38.6747C158.152 38.6747 157.855 38.7451 157.592 38.8859C157.332 39.0267 157.127 39.2333 156.977 39.5055C156.83 39.7746 156.756 40.1 156.756 40.4817Z" fill="white"/>
<path d="M149.286 42.3169L149.277 40.6038H149.521L152.393 37.553H154.074L150.798 41.0262H150.577L149.286 42.3169ZM147.996 44.7622V35.1499H149.399V44.7622H147.996ZM152.548 44.7622L149.967 41.3359L150.934 40.355L154.271 44.7622H152.548Z" fill="white"/>
</g>
</g>
<path d="M23.5003 11.0998C20.8003 9.39979 17.3003 11.2998 17.3003 14.4998V29.1998C17.3003 32.3998 20.8003 34.2998 23.5003 32.5998L34.9003 25.1998C37.4003 23.5998 37.4003 19.9998 34.9003 18.3998L23.5003 10.9998V11.0998Z" fill="white"/>
<path d="M49.2002 26.6001C47.1002 37.6001 37.5002 45.9001 25.9002 45.9001C14.3002 45.9001 4.60022 37.6001 2.50022 26.6001C0.80022 27.2001 -0.29978 29.1001 0.30022 31.0001C4.00022 41.6001 14.0002 49.1001 25.8002 49.1001C37.6002 49.1001 47.6002 41.5001 51.3002 31.0001C51.9002 29.1001 50.9002 27.2001 49.1002 26.6001H49.2002Z" fill="#FFD875"/>
<path d="M13.6001 34.8999C13.2001 33.9999 12.9001 32.9999 12.9001 31.8999V29.2999C12.9001 27.6999 11.6001 26.3999 10.0001 26.3999H8.6001C9.4001 29.6999 11.2001 32.5999 13.5001 34.8999H13.6001Z" fill="#FFD875"/>
<path d="M44.4999 26.3999C42.5999 34.8999 34.9999 41.1999 25.8999 41.1999C16.7999 41.1999 9.1999 34.8999 7.2999 26.3999H4.3999C6.3999 36.4999 15.2999 44.0999 25.9999 44.0999C36.6999 44.0999 45.5999 36.4999 47.5999 26.3999H44.6999H44.4999Z" fill="#FFD875"/>
<path d="M43.0001 26.5C42.2001 26.5 41.3001 26.8 40.6001 27.3L24.0001 38C22.9001 38.7 21.7001 39.1 20.6001 39.1C22.3001 39.6 24.0001 39.9 25.9001 39.9C34.2001 39.9 41.1001 34.2 43.1001 26.5H43.0001Z" fill="#FFD875"/>
<path d="M47.9003 20.1C46.9003 8.8 37.4003 0 25.9003 0C14.4003 0 4.90029 8.8 3.80029 20.1C3.80029 21.1 4.40029 22 5.40029 22.1C6.40029 22.1 7.20029 21.5 7.30029 20.5C8.20029 11 16.2003 3.5 25.9003 3.5C35.6003 3.5 43.6003 10.9 44.4003 20.4C44.4003 21.4 45.3003 22.1 46.3003 22C47.3003 22 48.0003 21 47.9003 20V20.1Z" fill="white"/>
</g>
<path d="M148.78 24.6438V11.4169H152.276V13.7505H152.431C152.707 12.9755 153.166 12.3641 153.809 11.9163C154.452 11.4685 155.221 11.2446 156.117 11.2446C157.024 11.2446 157.796 11.4714 158.433 11.9249C159.07 12.3727 159.495 12.9812 159.708 13.7505H159.845C160.115 12.9927 160.603 12.3871 161.309 11.9335C162.021 11.4743 162.862 11.2446 163.832 11.2446C165.067 11.2446 166.068 11.6379 166.838 12.4244C167.613 13.2051 168 14.3131 168 15.7483V24.6438H164.34V16.4717C164.34 15.7369 164.145 15.1857 163.755 14.8183C163.364 14.4509 162.877 14.2672 162.291 14.2672C161.625 14.2672 161.105 14.4796 160.732 14.9044C160.359 15.3235 160.173 15.8775 160.173 16.5664V24.6438H156.616V16.3942C156.616 15.7455 156.429 15.2288 156.056 14.8442C155.689 14.4595 155.204 14.2672 154.601 14.2672C154.193 14.2672 153.826 14.3705 153.499 14.5772C153.177 14.7781 152.922 15.0623 152.732 15.4297C152.543 15.7914 152.448 16.2162 152.448 16.7042V24.6438H148.78Z" fill="white"/>
<path d="M142.172 24.6435V11.4165H145.84V24.6435H142.172ZM144.015 9.71147C143.469 9.71147 143.002 9.53064 142.611 9.16896C142.226 8.80155 142.034 8.36237 142.034 7.85143C142.034 7.34623 142.226 6.9128 142.611 6.55112C143.002 6.18371 143.469 6 144.015 6C144.56 6 145.025 6.18371 145.41 6.55112C145.8 6.9128 145.995 7.34623 145.995 7.85143C145.995 8.36237 145.8 8.80155 145.41 9.16896C145.025 9.53064 144.56 9.71147 144.015 9.71147Z" fill="white"/>
<path d="M130.708 16.9974V24.6443H127.04V7.0083H130.605V13.751H130.76C131.059 12.9702 131.541 12.3588 132.207 11.9167C132.873 11.469 133.708 11.2451 134.713 11.2451C135.631 11.2451 136.432 11.446 137.115 11.8479C137.804 12.244 138.338 12.8152 138.717 13.5615C139.102 14.3021 139.291 15.189 139.285 16.2224V24.6443H135.617V16.8769C135.623 16.0617 135.416 15.4273 134.997 14.9738C134.584 14.5202 134.004 14.2935 133.257 14.2935C132.758 14.2935 132.316 14.3997 131.931 14.6121C131.552 14.8245 131.254 15.1345 131.036 15.5421C130.823 15.944 130.714 16.4291 130.708 16.9974Z" fill="white"/>
<path d="M111.408 24.6443V7.0083H118.366C119.703 7.0083 120.843 7.26377 121.784 7.77471C122.726 8.2799 123.443 8.98316 123.937 9.88448C124.437 10.7801 124.686 11.8134 124.686 12.9845C124.686 14.1557 124.434 15.189 123.929 16.0846C123.423 16.9802 122.691 17.6777 121.733 18.1772C120.78 18.6766 119.626 18.9264 118.271 18.9264H113.836V15.9382H117.668C118.386 15.9382 118.977 15.8148 119.442 15.5679C119.913 15.3153 120.263 14.968 120.493 14.526C120.728 14.0782 120.846 13.5644 120.846 12.9845C120.846 12.399 120.728 11.888 120.493 11.4517C120.263 11.0097 119.913 10.6681 119.442 10.427C118.971 10.1801 118.374 10.0567 117.651 10.0567H115.136V24.6443H111.408Z" fill="white"/>
<path d="M102.445 24.9022C101.107 24.9022 99.9503 24.618 98.9744 24.0496C98.0042 23.4756 97.255 22.6776 96.7268 21.6557C96.1986 20.6281 95.9346 19.4369 95.9346 18.082C95.9346 16.7157 96.1986 15.5216 96.7268 14.4997C97.255 13.4721 98.0042 12.6741 98.9744 12.1058C99.9503 11.5317 101.107 11.2446 102.445 11.2446C103.782 11.2446 104.936 11.5317 105.906 12.1058C106.882 12.6741 107.634 13.4721 108.163 14.4997C108.691 15.5216 108.955 16.7157 108.955 18.082C108.955 19.4369 108.691 20.6281 108.163 21.6557C107.634 22.6776 106.882 23.4756 105.906 24.0496C104.936 24.618 103.782 24.9022 102.445 24.9022ZM102.462 22.0604C103.07 22.0604 103.579 21.8882 103.986 21.5438C104.394 21.1936 104.701 20.7171 104.908 20.1143C105.12 19.5115 105.226 18.8255 105.226 18.0562C105.226 17.2869 105.12 16.6009 104.908 15.9981C104.701 15.3953 104.394 14.9188 103.986 14.5686C103.579 14.2184 103.07 14.0433 102.462 14.0433C101.848 14.0433 101.331 14.2184 100.912 14.5686C100.499 14.9188 100.186 15.3953 99.9733 15.9981C99.7666 16.6009 99.6633 17.2869 99.6633 18.0562C99.6633 18.8255 99.7666 19.5115 99.9733 20.1143C100.186 20.7171 100.499 21.1936 100.912 21.5438C101.331 21.8882 101.848 22.0604 102.462 22.0604Z" fill="white"/>
<path d="M85.0039 16.9974V24.6443H81.3354V7.0083H84.9005V13.751H85.0555C85.3541 12.9702 85.8363 12.3588 86.5022 11.9167C87.1682 11.469 88.0035 11.2451 89.0081 11.2451C89.9267 11.2451 90.7275 11.446 91.4107 11.8479C92.0996 12.244 92.6335 12.8152 93.0124 13.5615C93.397 14.3021 93.5865 15.189 93.5807 16.2224V24.6443H89.9123V16.8769C89.9181 16.0617 89.7114 15.4273 89.2923 14.9738C88.879 14.5202 88.2991 14.2935 87.5528 14.2935C87.0534 14.2935 86.6113 14.3997 86.2267 14.6121C85.8478 14.8245 85.5493 15.1345 85.3311 15.5421C85.1187 15.944 85.0096 16.4291 85.0039 16.9974Z" fill="white"/>
<path d="M64.6851 24.6443V7.0083H68.4138V14.7843H68.6463L74.9928 7.0083H79.4621L72.9175 14.9049L79.5396 24.6443H75.0789L70.248 17.3935L68.4138 19.6325V24.6443H64.6851Z" fill="white"/>
</g>
</g>
<defs>
<clipPath id="clip0_316_381">
<rect width="170" height="50" fill="white"/>
</clipPath>
</defs>
</svg>
